<svg width="24" height="24" viewBox="0 0 24 24" fill="none" xmlns="http://www.w3.org/2000/svg"><path d="M5.143 17.029h-.914A1.829 1.829 0 0 1 2.4 15.2V6.971c0-1.01.819-1.828 1.829-1.828h8.228c1.01 0 1.829.819 1.829 1.828V15.2a1.83 1.83 0 0 1-1.829 1.829h-.914m4.114 0H15.2a.914.914 0 0 1-.914-.915V8.343c0-.505.41-.914.914-.914h2.303c.278 0 .54.126.714.343l3.183 3.977c.13.163.2.364.2.572v3.793c0 .505-.41.915-.914.915m-10.057-.458a2.286 2.286 0 1 1-4.572 0 2.286 2.286 0 0 1 4.572 0Zm9.6 0a2.286 2.286 0 1 1-4.572 0 2.286 2.286 0 0 1 4.572 0Z" stroke="#6F7977" stroke-width="2" stroke-linecap="round"/></svg>
