<svg width="24" height="24" viewBox="0 0 24 24" fill="none" xmlns="http://www.w3.org/2000/svg"><path fill-rule="evenodd" clip-rule="evenodd" d="M10.84 3.9a1.16 1.16 0 1 1 2.32 0 1.16 1.16 0 0 1-2.32 0Zm8.354 5.822c.448.995.697 2.1.697 3.262v.012l-.025 1.922c.002 1.14.455 2.105.943 2.778.378.521.34 1.144.156 1.575-.183.433-.641.952-1.378.952h-3.476c-.473 1.78-2.177 3.037-4.111 3.037-1.934 0-3.638-1.258-4.11-3.037H4.413c-.749 0-1.207-.535-1.386-.97-.178-.434-.214-1.067.18-1.59.512-.675.976-1.63.976-2.752V14.9l.025-2.022a7.826 7.826 0 0 1 5.09-7.335 3.16 3.16 0 1 1 5.858-1.76 3.594 3.594 0 0 0-1.275 3.587A5.854 5.854 0 0 0 12 7.059c-3.194 0-5.791 2.603-5.791 5.824v.012l-.025 2.023c-.001 1.316-.428 2.442-.944 3.305h13.532a6.653 6.653 0 0 1-.906-3.311v-.013l.025-1.921a5.923 5.923 0 0 0-.692-2.784 3.583 3.583 0 0 0 1.995-.472ZM12 21.26c-.867 0-1.574-.433-1.95-1.037h3.9c-.376.604-1.083 1.037-1.95 1.037Z" fill="#6F7977"/><circle cx="17.5" cy="6.5" r="2.5" fill="#DF4C5A"/></svg>
